<?xml version="1.0" encoding="UTF-8"?>
<svg id="logo" xmlns="http://www.w3.org/2000/svg" viewBox="0 0 201 201">
  <defs>
    <style>
      .cls-1 {
        fill: #68f646;
      }

      .cls-2 {
        fill: #cdffff;
        stroke: #000;
        stroke-miterlimit: 10;
      }

      .cls-3 {
        fill: #67f645;
      }

      .cls-4 {
        fill: #6cf34e;
      }

      .cls-5 {
        fill: #6df54d;
      }
    </style>
  </defs>
  <rect class="cls-2" x=".5" y=".5" width="200" height="200"/>
  <path d="M35.38,109.1c-2.64.47-5.77.8-8.39.06-1.32-.37-2.25-1.12-2.82-2.38-1.18-2.62-1.17-10.63-.07-13.28.81-1.94,2.35-2.49,4.31-2.84v11.88c.15.77.07,1.7.65,2.3.95,1,4.97.54,6.33.35v3.9h0Z"/>
  <path d="M101.91,105.2v3.9c-2.76.51-8.24,1.11-10.4-1-2-1.95-1.8-8.18-1.66-10.88.19-3.47,1.09-6.14,4.97-6.55.1,3.4-.13,6.83,0,10.23,0,.28-.02.54,0,.82.06,1.01-.1,2.59.87,3.28,1.22.87,4.73.35,6.23.21h-.01Z"/>
  <path class="cls-3" d="M120.94,91.14c.48.33.41-.62.71-.77.93-.47.93.72.95,1.36.59.27,1.19-.91,1.42-.17l-1.19,13.17c2.71-.9,5.57-1.28,8.39-1.65.06.35-.09.19-.29.24-1.89.46-3.94.61-5.86,1.12-.73.2-1.77.39-2.24,1l2.55-.71c.1.24.06.25.33.23,1.17-.09,3.62-1.07,4.63-.92,1.34.19,2.46-.18,3.92.2.17.05.32-.08.28.19-.11.78-2.52,1.09-3.19,1.12-.03.16.21.18.33.2.49.11,1.22.23,1.68.03v.58c-2.59.75-5.39,1.14-7.94,1.94-1.42.44-3.47,1.58-4.79,1.83s-.87-.21-1.49-.77c-.09-.08-.28,0-.32-.03-.18,0-.29,0-.15-.12-.96-.1-.15-1.19.53-1.27,0-.46-.22-.89-.62-1.29l-.08-.34.91-10.53c.09-.36.31-.41.61-.19.21.15.03,2.12-.04,2.45l-.21.17c.17.03.33.08.47.14-.09,1.1-.22,2.27-.35,3.29.02.21.1.17.24-.12-.22-1.1,0-2.22.24-3.31l-.14-.29c.02-2.07.11-4.23.41-6.3.01-.09.06-.17.12-.26s.12-.17.2-.25l-.02.03Z"/>
  <path d="M59.84,90.79c.15,3.88-.19,7.9,0,11.76.02.48.07,1.19.12,1.65.06.54.38,1.24,1.01,1.24h2.07v4.14c-2.59-.01-6.49.21-7.62-2.72-.4-1.04-.49-2.71-.54-3.83-.17-4.03.14-8.19,0-12.24h4.96Z"/>
  <rect x="39.75" y="90.79" width="4.96" height="18.55"/>
  <rect x="106.16" y="90.79" width="4.96" height="18.55"/>
  <path d="M69.06,90.79v14c0,.11-.13.83-.17,1.01-.51,2.56-2.28,3.57-4.79,3.66v-18.67s4.96,0,4.96,0Z"/>
  <rect x="77.09" y="96.22" width="5.08" height="13.12"/>
  <rect x="72.6" y="90.79" width="14.06" height="4.25"/>
  <path d="M51.21,109.34h-5.44v-4.37h5.26s.18.16.18.18v4.2h0Z"/>
  <path d="M101.79,91.02v3.9c-1.91-.17-3.9-.49-5.79,0v-4.37c1.95-.09,3.88.14,5.79.47Z"/>
  <path d="M35.38,94.92c-1.92-.14-3.9-.51-5.79,0v-4.37c1.91,0,4.01-.04,5.79.65v3.72Z"/>
  <path class="cls-4" d="M150.48,95.28c-.64.77-1.13,1.7-1.89,2.36.14-.55.58-1.16.95-1.59.11-.13.8-.9.94-.77Z"/>
  <path class="cls-5" d="M152.25,93.27c.14.15-.89,1.08-1.06,1.18-.1-.29.92-1.33,1.06-1.18Z"/>
  <path class="cls-1" d="M147.52,99.65l.29-.94c.36.31.19.93-.29.94Z"/>
  <g>
    <path class="cls-3" d="M168.25,104.74c-.94-.11-2.45-.06-3.42-.02-2.27.1-4.53.54-6.79.71-.11-.11.3-2.79.38-2.99.06-.16.15-.23.33-.2.09.62-.2,1.22-.12,1.83.02.16.06.35.23.17.16-1.08,1.18-2.12.95-3.19,1.99.08,3.98-.19,5.91-.65.88-.21,2.62-.61,3.12-1.37.08-.12.26-.3.07-.41-.22-.12-1.48-.22-1.54-.3,0-.01,0-.34,0-.35.04-.04,1.05.35.18-.35l-6.68.41.55-3.02,5.48-.58c.19-.14,0-.21-.17-.24-.67-.08-1.38.18-1.89.13-.26-.02-.42-.21-.7-.25-.73-.1-1.63.25-2.43,0,0-.17-.05-.43.11-.54.2-.14,4.26-.13,4.91-.17.45-.03,1.43-.09,1.8-.21.72-.23.98-1.13,1.2-1.76,0-.13-.88-.8-1.01-.84-.73-.21-4.05-.04-5.06-.03-1.54.02-3.26-.02-4.72,0-.24,0-.29.34-.77,0-.29,1.53-.54,2.93-.36,4.49l-.47-.24c-.06,1.21-.37,2.41-.47,3.61-.03.39.13.77.1,1.04-.03.25-.37.58-.4.79-.02.14.13.22.15.32.02.14-.11.37-.08.4.04.04.32-.04.36,0,.06.06-.28,1.34-.12,1.65h-.35c0-.16-.02-.32,0-.47,0-.06.19-.17.12-.35-.2.03-.2.2-.24.35-.12.49-.15,1.04-.24,1.54-.07.37-.27.78-.24,1.18.52.04-.08-.65.59-.47-.32.5.08,1.23.12.3,0-.17.03-.97,0-1.01-.03-.03-.27.12-.35,0-.1-.35.38-1.14.71-.83.17.16-.15,1.76-.13,2.07,0,.25.27.5.25.53,0,.02-.23.01-.34.19-.19.28-.08.73-.3,1-.31-.33-.22-.92-.06-1.3h-.35c.13,1.78-2.09,4.65,1.34,4.24l10.47-1.52c0-.11.03-.44,0-.47-.06-.06-1.47-.09-1.72-.12-.18-.02-.36-.09-.17-.24,1.14.02,3.57-.02,2.84-1.77.4.18.67-.25.47-.47-.03-.04-.89-.22-1.01-.23h-.04Z"/>
    <path class="cls-3" d="M164.45,101.26c-.54.02-1.08.23-1.56.28-.65.06-.59-.25-.76-.25-.52,0-1.27.21-1.84.19l.29.42c.76-.17,1.54-.16,2.31-.24.63-.07,1.27-.14,1.89-.24-.06-.26-.16-.16-.33-.16Z"/>
  </g>
  <path class="cls-3" d="M155.56,95c-.02-.09-.21-.07-.23-.16-.05-.16.11-.62-.18-.51-.15.06-.78.61-.89.77-.36.51-.14.93-1.06.77.13-.29,1.17-1.26,1.15-1.48,0-.06-.72-.79-.8-.82-.58-.27-1.2.59-1.59,1-.45.47-.86,1.04-1.24,1.54.18.04.44-.16.25.19-.22.42-.21.64-.73.4-.85,1.22-1.76,2.65-2.5,3.94-.21.36-1,2.11-1.1,2.2-.74.69-.27-.94-.29-1.11,0-.1-.24-.1-.3-.18-.17-.25-.03-2.14-.07-2.66-.19-2.4-1.02-4.92-1.54-7.27-.66-.13-.44.16-.47.7h-.35c.11-1.48-1.49-2-2.72-1.89-.06.06.33.92.35,1.13.03.33-.14.74-.09.91.06.22.59.9.75,1.61.76,3.33,1.01,9.72.71,13.07-.06.69-.06,1.26.05,1.94.21,0,.62.07.7-.19-.1-.66-.55-1.08.19-1.58-.17,1.11-.11,2.04,1.19,2.23,1.14.17.63-.23.99-.73s.93.25,1.29.02l5.05-9.07c.81-1.17,1.62-2.39,2.59-3.44.41-.44,1.08-.56.89-1.33h0ZM142.92,98.7v-1.18h.35v1.18h-.35ZM143.51,101.83c-.04.2-.13.33-.35.3v-2.72c.16-.03.28.04.33.2.07.21.07,1.96.02,2.22ZM147.32,106.35c-.08.16-.07.25-.32.15-.58-.24.56-1.61.77-1.42-.22.38-.24.89-.45,1.27ZM148,104.49c.03-.35.45-.63.71-.83-.03.35-.45.63-.71.83ZM151.78,97.52c-.06-.05.76-1.38.94-1.18.12.14-.63,1.42-.94,1.18ZM154.38,95.63c0-.43.3-.62.71-.59-.14.43-.18.68-.71.59Z"/>
  <path d="M120.94,90.79h-5.08v7.21h-3.55v4.25h3.55v7.09h2.95s.03-.16-.04-.2c-.19-.12-.46.13-.27-.4.2-.55.86-.5.9-.66.23-.91-.66-1.27-.68-1.73l.91-10.6c.15-.19.21,0,.24.17.07.59-.22,2.02-.12,2.31.03.09.14.1.22.11.04.02.08.03.12.04.12.24-.33,2.11-.34,2.51-.01.34.12.61.12.76,0,.68-.4,1.39-.24,2.13h.35c-.05-.76.07-1.5.12-2.25.08-1.06.15-2.13.23-3.19.01-.03.02-.07,0-.12.18-2.29.24-4.87.59-7.09.02-.11-.01-.24,0-.35h.02Z"/>
  <path class="cls-3" d="M140.3,91.33c-.25-.3-.51-.24-.76-.43-.18-.13-.26-.42-.32-.45-.14-.08-2.5.11-2.58.21.27.51.27.9.23,1.47-.09,1.49-1.04,3.73-1.03,4.99,0,.2.28.37.21.63h-.47c.23.61.28.99.03,1.62-.08.2-.33.29-.38.56-.24,1.26-.13,2.93-.24,4.25-.09,1.1-.33,2.22-.46,3.32.02.28.86.97.91,1.19.06.28-.41,1.41-.28,1.59.19.26,1.87.66,2.07.46.03-.03.06-.51.15-.73.24-.56,1.08-1.39,1.14-1.81.11-.68-.16-1.39-.06-2.19.1-.76-.06-.56-.06-1.11-.02-2.36.54-5.87,1.02-8.22.27-1.33.92-2.97,1.1-4.19.05-.37.02-.87-.22-1.17h0ZM135.95,99.35c.04-.19-.08-.2.23-.18-.03.24.11,1.53-.18,1.53-.31,0-.09-1.15-.06-1.36h0ZM135.83,109.81v-1.18h.59c.1.56-.11.91-.59,1.18ZM136.18,98.47s.1-1.07.12-1.24c.03-.21-.06-.2.23-.18v1.42c-.1-.01-.33.02-.35,0h0ZM136.89,96.34c-.21-.02-.36.12-.36-.18,0-.32.08-.95.12-1.3.03-.22-.04-.19.24-.18v1.65h0Z"/>
  <path class="cls-3" d="M20.73,104.91c-1.1,1.25-2.16,2.85-3.88,3.33-.93.26-1.41.41-1.63-.67-.22-1.09.21-2.36.42-3.43,1.34.52,2.19.49,3.35-.37,1.72-1.28,3.35-4.55.68-5.72-.88-.38-2,.18-2.76.68-2.67,1.75-5.57,7.1-2.62,9.67,2.56,2.24,4.63.6,6.07-1.86.1-.17,1-1.9.38-1.63h0ZM16.23,103.01c.46-.86,2.29-3.06,3.15-3.46.17-.08.3-.18.51-.14-.26,2-1.56,4.03-3.78,4.02-.05-.19.04-.27.11-.42h.01Z"/>
  <path d="M176.5,95.15c.31-3.56,2.16-5.31,5.8-5.05,4.68.33,5.39,4.96,4.05,8.67-1.06,2.94-3.69,4.61-4.97,7.39h5.37v3.65h-10.25c-.02-.82,0-1.65.16-2.46.94-4.75,6.57-6.76,6.07-12.32-.07-.82-.39-1.52-1.35-1.22-.3.1-.73.71-.73.98v3.1h-4.15c.06-.89-.08-1.86,0-2.74h0Z"/>
</svg>